<svg width="158" height="159" viewBox="0 0 158 159" fill="none" xmlns="http://www.w3.org/2000/svg">
<path d="M68.9989 1.09703C50.7638 3.49963 34.5924 11.6931 21.8094 25.0922C10.7512 36.674 3.45103 51.3976 0.925222 67.1685C0.124355 72.0969 -0.06046 83.7711 0.586394 89.0383C3.60504 113.711 18.0822 135.55 39.7365 148.025C47.8683 152.707 56.493 155.787 66.1958 157.482C71.5555 158.406 82.9216 158.621 88.5893 157.882C122.534 153.631 149.702 128.466 156.478 95.0448C157.926 87.9602 158.296 77.0561 157.402 69.6327C152.967 33.9942 124.505 5.53259 88.8665 1.09703C84.1845 0.542587 73.4344 0.542587 68.9989 1.09703ZM67.1507 50.6891C71.8943 51.9212 75.3134 54.5087 77.1 58.2358C78.8249 61.8397 79.1329 66.5217 77.9008 70.0948C77.1616 72.1893 74.4509 74.9 72.3872 75.6392C71.5555 75.9164 70.6314 76.2553 70.385 76.3477C70.1386 76.4401 70.6622 76.6249 71.5247 76.7481C76.0835 77.4874 79.1329 80.7524 80.2418 86.0505C80.7963 88.7611 80.673 93.7511 79.9954 96.1845C78.3937 101.852 74.1737 105.641 67.582 107.212C65.1486 107.797 63.9781 107.828 48.7616 107.828H32.4978V79.0275V50.2271H48.9156C62.6844 50.2271 65.6106 50.2887 67.1507 50.6891ZM116.897 57.0037V60.3919H105.038H93.1789V57.0037V53.6154H105.038H116.897V57.0037ZM110.89 65.4744C114.371 66.2136 117.698 68.031 120.008 70.4644C123.581 74.2839 125.183 78.6579 125.429 85.4036L125.614 89.6544H110.428H95.2427L95.4583 91.2561C95.9511 95.2604 97.4912 97.6322 100.51 99.1108C102.142 99.9116 102.543 99.9732 105.962 99.9732C109.196 99.9732 109.874 99.8808 111.291 99.234C113.201 98.3715 114.587 96.893 115.049 95.1988L115.388 93.9667H120.316H125.244L125.029 95.7225C124.259 102.129 120.47 106.134 113.293 108.198C111.198 108.814 110.213 108.906 105.654 108.875C99.8322 108.844 97.3064 108.382 93.9182 106.657C86.926 103.115 82.9216 95.3837 83.4145 86.4201C84.0305 75.5776 90.3142 67.5381 99.8014 65.4744C102.327 64.9199 108.241 64.9199 110.89 65.4744Z" fill="#EB0043"/>
<path d="M45.4346 66.7065V73.329H54.2133C64.3473 73.329 64.6862 73.2674 65.8259 71.1113C66.4111 70.0024 66.5035 69.2939 66.5343 66.7065C66.5343 63.3182 66.1031 62.1477 64.4397 60.8848C63.6081 60.2688 63.146 60.238 54.4905 60.1455L45.4346 60.0531V66.7065Z" fill="#EB0043"/>
<path d="M45.4346 89.9932V98.0327L54.6137 97.9095C64.3781 97.7863 64.8402 97.7247 66.5035 96.1846C67.982 94.7984 68.5365 93.1967 68.5365 90.3013C68.5365 87.1286 68.1361 85.7117 66.7807 84.11C65.0866 82.1386 64.0085 81.9538 53.9977 81.9538H45.4346V89.9932Z" fill="#EB0043"/>
<path d="M102.85 73.4214C100.941 73.9142 99.3697 74.8691 98.1376 76.286C97.0287 77.5489 95.7966 79.8283 95.4886 81.2452L95.2729 82.2617H105.037H114.802L114.617 81.0912C113.908 77.2409 111.906 74.4687 109.196 73.6678C107.194 73.0826 104.637 72.9901 102.85 73.4214Z" fill="#EB0043"/>
</svg>
