<svg width="106" height="106" viewBox="0 0 106 106" fill="none" xmlns="http://www.w3.org/2000/svg">
<path d="M46.7471 0.49015C36.6886 1.72939 27.8074 5.42646 19.6903 11.7879C17.5423 13.4815 12.4614 18.6864 10.7884 20.917C4.81943 28.8688 1.41152 37.2543 0.254889 46.7345C-0.158191 50.2044 -0.0549212 58.0942 0.46143 61.2956C2.17571 71.9738 7.07072 81.8464 14.4855 89.6123C22.6232 98.1218 32.5371 103.389 44.248 105.433C47.8418 106.053 55.4631 106.197 59.2635 105.702C83.8005 102.624 102.843 83.3128 105.508 58.7758C105.838 55.781 105.673 47.7672 105.219 44.9996C101.418 21.5779 82.7471 3.46433 59.4493 0.572762C56.6611 0.242302 49.2669 0.180336 46.7471 0.49015ZM83.0363 29.8602C84.4201 30.5418 85.5354 31.719 86.217 33.2061L86.7127 34.3008L86.6714 53.3645L86.6094 72.4488L86.1344 73.3369C85.4115 74.7001 84.3168 75.7948 83.0363 76.4144L81.859 76.9927H52.8401H23.8211L22.8711 76.559C21.4872 75.9187 20.31 74.762 19.5871 73.3369L18.9674 72.077V53.1579V34.2388L19.4631 33.1855C20.3513 31.2647 21.8177 29.9634 23.7179 29.4678C24.4408 29.2612 31.0914 29.2199 53.2531 29.2406L81.859 29.2819L83.0363 29.8602Z" fill="#EB0043"/>
<path d="M29.7074 34.8378C30.926 35.9944 52.778 53.1166 52.9639 53.0546C53.191 52.972 75.4148 35.3748 75.9724 34.8378C76.2203 34.5899 73.0189 34.5486 52.8399 34.5486C32.7229 34.5486 29.4596 34.5899 29.7074 34.8378Z" fill="#EB0043"/>
<path d="M24.1309 54.1287C24.1309 70.2595 24.1515 71.065 24.5026 71.3748C24.8538 71.7053 27.1257 71.726 52.8813 71.726C79.7315 71.726 80.8881 71.7053 81.198 71.3542C81.5284 71.0031 81.5491 69.516 81.5491 54.1081C81.5491 44.8344 81.5078 37.2337 81.4458 37.2337C81.3838 37.2337 75.2909 42.0461 67.8761 47.9325C60.4613 53.8189 54.1825 58.7552 53.9346 58.8791C53.3563 59.189 52.3236 59.189 51.7453 58.8791C51.4975 58.7552 45.2186 53.8189 37.8038 47.9325C30.389 42.0461 24.2961 37.2337 24.2341 37.2337C24.1722 37.2337 24.1309 44.8344 24.1309 54.1287Z" fill="#EB0043"/>
</svg>
