<svg width="158" height="159" viewBox="0 0 158 159" fill="none" xmlns="http://www.w3.org/2000/svg">
<path d="M68.8369 0.779266C54.6061 2.62743 41.5766 8.07947 30.1797 16.889C26.5758 19.692 20.4461 25.7293 17.4582 29.4256C8.9567 39.9601 3.31983 52.4044 0.917232 65.9575C0.0547601 70.7627 -0.284068 82.3136 0.270378 87.5809C2.79619 111.176 15.8257 132.399 35.8781 145.49C45.8582 151.989 57.1011 156.086 69.2989 157.595C73.9809 158.18 83.8377 158.15 88.7045 157.564C124.435 153.129 152.805 124.76 157.24 89.0286C157.856 84.0386 157.856 74.305 157.24 69.315C154.406 46.3979 141.562 25.8526 122.125 13.0695C111.991 6.41614 100.718 2.28859 88.7045 0.779266C84.0225 0.224823 73.2724 0.224823 68.8369 0.779266ZM99.3622 34.5081C103.921 34.9085 107.032 35.7402 110.574 37.4959C113.039 38.6972 113.932 39.3749 116.304 41.7159C118.645 44.0877 119.322 44.9809 120.524 47.4451C123.665 53.7905 123.912 56.4087 123.727 81.636C123.635 99.9635 123.573 101.38 122.988 103.999C120.739 113.855 114.486 120.54 105.245 122.881C100.995 123.989 96.9288 124.174 78.8477 124.174C56.1462 124.174 53.2508 123.866 47.1211 120.848C44.6569 119.646 43.7636 118.969 41.3918 116.628C39.0508 114.256 38.3731 113.363 37.1718 110.898C34.1532 104.769 33.876 102.089 33.876 79.1718C33.876 56.2547 34.1532 53.5749 37.1718 47.4451C38.3731 44.9809 39.02 44.0877 41.3918 41.7467C45.2421 37.9271 48.692 36.1406 54.6061 34.9393C58.8876 34.0768 90.7683 33.7688 99.3622 34.5081Z" fill="#EB0043"/>
<path d="M59.9039 42.2086C53.7742 42.6398 49.8623 44.1184 46.782 47.1986C43.7018 50.3097 42.3772 53.9444 41.8844 60.6285C41.5148 65.711 41.5148 92.6324 41.8844 97.7148C42.3772 104.368 43.7326 108.064 46.8436 111.176C50.1087 114.471 53.5894 115.642 61.29 116.166C67.851 116.597 98.1607 116.35 100.995 115.858C109.465 114.317 113.993 109.789 115.533 101.319C116.026 98.4849 116.273 68.1752 115.841 61.6142C115.318 53.8212 114.178 50.4637 110.851 47.1678C107.679 43.9952 104.075 42.6706 97.2058 42.2086C92.4622 41.8698 64.8015 41.9006 59.9039 42.2086ZM105.368 50.4021C107.34 51.4186 108.664 54.1292 108.11 56.039C106.909 60.2897 102.381 61.6142 99.3928 58.6264C95.2344 54.468 100.132 47.7223 105.368 50.4021ZM85.162 56.9938C89.1971 58.2567 91.9694 59.9509 95.0188 63.0003C98.0991 66.0806 99.7624 68.822 101.056 73.0112C102.103 76.3378 102.103 82.0055 101.056 85.3322C99.7624 89.5213 98.0991 92.2628 95.0188 95.343C91.9386 98.4233 89.1971 100.087 85.008 101.38C81.6813 102.428 76.0136 102.428 72.687 101.38C68.4978 100.087 65.7564 98.4233 62.6761 95.343C59.5959 92.2628 57.9325 89.5213 56.6388 85.3322C55.5915 82.0055 55.5915 76.3378 56.6388 73.0112C58.9798 65.4029 64.6783 59.5505 72.0093 57.1479C74.6583 56.2854 76.3525 56.1006 79.7715 56.2238C81.9277 56.2854 83.7143 56.5626 85.162 56.9938Z" fill="#EB0043"/>
<path d="M74.0117 64.6945C69.9766 66.019 66.2494 69.5305 64.6477 73.5348C64.0317 75.0749 63.9084 75.845 63.9084 79.1717C63.9084 82.4675 64.0317 83.2684 64.6169 84.7777C66.1262 88.5048 69.5145 91.8931 73.2416 93.4024C74.7509 93.9877 75.5518 94.1109 78.8477 94.1109C82.1436 94.1109 82.9444 93.9877 84.4538 93.4024C88.1809 91.8931 91.5691 88.5048 93.0785 84.7777C93.6637 83.2684 93.7869 82.4675 93.7869 79.1717C93.7869 75.8758 93.6637 75.0749 93.0785 73.5656C91.5691 69.8385 88.1501 66.4194 84.4538 64.9717C81.8971 63.9552 76.6915 63.832 74.0117 64.6945Z" fill="#EB0043"/>
</svg>
