<svg width="158" height="159" viewBox="0 0 158 159" fill="none" xmlns="http://www.w3.org/2000/svg">
<path d="M71.2646 0.86824C56.3254 2.37756 42.0946 8.07605 30.2972 17.2244C26.6933 20.0274 20.5636 26.0647 17.5757 29.761C8.98183 40.4187 3.37576 52.863 0.973163 66.6933C0.0798891 71.9913 -0.166531 83.6655 0.541927 89.056C1.86644 98.9744 4.29984 106.952 8.643 115.485C12.2777 122.662 16.5285 128.545 22.4425 134.613C35.1948 147.704 50.8733 155.497 69.4165 157.93C74.7761 158.608 86.4503 158.393 91.7791 157.468C99.8494 156.082 106.718 153.865 113.926 150.322C121.565 146.564 127.726 142.221 134.071 136.03C146.3 124.109 154 109.416 156.927 92.321C157.851 86.9614 158.066 75.6569 157.389 69.9584C154.555 46.8257 141.772 26.2496 122.243 13.4049C112.109 6.75154 100.835 2.62399 88.8221 1.11467C85.3414 0.683426 74.4681 0.529419 71.2646 0.86824ZM110.723 50.6144C115.035 52.5857 117.16 56.8673 117.16 63.6439C117.16 69.6196 114.819 75.7801 109.152 84.7436C103.022 94.4772 94.0585 105.166 87.9596 110.033C83.4624 113.636 79.2733 115.546 75.885 115.546C74.4373 115.546 73.8828 115.392 72.7739 114.622C68.3076 111.634 63.6564 101.439 58.2043 82.5874C55.6785 73.8395 54.2308 70.5744 52.4134 69.5271C50.9349 68.6339 49.518 69.1267 45.144 72.0222C43.2035 73.2851 42.4026 73.6547 41.8482 73.5315C40.9857 73.3159 38.6139 70.4204 38.6139 69.5579C38.6139 68.8495 39.6304 67.833 44.4664 63.7671C51.9822 57.4525 56.7874 53.9719 60.7917 51.9081C62.8555 50.83 63.3483 50.7376 65.4121 50.7376C69.4781 50.7068 71.3878 52.3701 72.9279 57.3293C73.3284 58.5922 74.9301 64.7527 76.501 71.0365C79.5505 83.3883 81.8299 90.7809 82.754 91.3354C83.216 91.6126 83.4932 91.4894 84.2633 90.5961C85.6186 88.9944 90.0234 82.2794 92.2103 78.4599C95.1982 73.2543 95.8758 70.7284 94.7978 68.6955C94.0585 67.217 92.6108 66.7857 88.8837 66.9089C85.9266 67.0321 85.6494 66.9705 85.249 66.4161C84.8793 65.8616 84.9717 65.492 85.8958 63.3666C87.5284 59.6087 88.7913 57.699 91.2863 55.1732C95.3214 51.138 99.4181 49.5671 105.609 49.7211C108.474 49.8135 109.275 49.9367 110.723 50.6144Z" fill="#EB0043"/>
</svg>
