<svg width="106" height="106" viewBox="0 0 106 106" fill="none" xmlns="http://www.w3.org/2000/svg">
<path d="M46.1572 0.566116C36.615 1.80536 27.8784 5.46113 20.2364 11.3682C17.8198 13.2477 13.7097 17.2959 11.7062 19.7744C6.00573 26.8381 2.22605 35.1823 0.615031 44.2701C0.0367183 47.4921 -0.190476 55.2373 0.181297 58.7692C1.87493 74.5902 10.6116 88.8208 24.0574 97.5988C30.7493 101.957 38.288 104.704 46.467 105.716C49.6064 106.108 56.2157 106.088 59.479 105.695C83.4377 102.721 102.46 83.6986 105.434 59.7399C105.847 56.394 105.847 49.8673 105.434 46.5213C103.534 31.1547 94.9213 17.3785 81.8887 8.80708C75.0935 4.34581 67.5341 1.57816 59.479 0.566116C56.3396 0.194344 49.1314 0.194344 46.1572 0.566116ZM59.9541 21.3234C74.2673 24.1117 84.8009 36.2976 85.4411 50.8587C85.8542 60.153 82.405 68.5798 75.5272 75.1478C66.2742 83.9878 52.436 86.2804 40.8697 80.869L38.887 79.9396L30.646 82.1082C26.1228 83.2855 22.3844 84.2356 22.3431 84.215C22.3018 84.1943 23.2725 80.5592 24.4704 76.1599L26.6804 68.1461L25.6271 65.9568C23.4997 61.4336 22.7355 58.2735 22.5703 53.2339C22.4877 50.2804 22.529 49.3303 22.8801 47.2442C25.3173 33.0343 36.677 22.3974 51.1141 20.8277C52.9524 20.6418 57.7854 20.8897 59.9541 21.3234Z" fill="#EB0043"/>
<path d="M50.4326 26.0739C40.4361 27.4783 32.1331 34.4181 28.9111 44.0016C28.0436 46.5833 27.6719 49.0618 27.6719 52.2012C27.6719 57.4473 28.8492 61.7434 31.5135 66.1633L32.1951 67.2993L30.8733 72.1324C30.1504 74.7967 29.572 76.9861 29.6134 77.0274C29.634 77.048 31.8853 76.4904 34.591 75.7881L39.5273 74.4869L41.4481 75.4783C45.6409 77.6883 49.214 78.5764 54.0058 78.5764C57.4137 78.5764 60.0574 78.1633 62.825 77.1719C70.6529 74.363 76.6839 68.0842 79.183 60.153C80.0918 57.2821 80.4016 54.8656 80.2777 51.2718C80.1331 47.0584 79.4309 44.2081 77.6753 40.635C74.0402 33.3234 67.6581 28.2838 59.6856 26.4663C57.6615 25.9912 52.498 25.7847 50.4326 26.0739ZM45.517 38.301C46.054 39.1066 48.5324 45.2615 48.5324 45.7365C48.5324 46.005 47.9748 46.9551 47.2932 47.8639C46.5497 48.8553 46.054 49.7227 46.054 50.0325C46.054 51.3131 49.7097 55.6917 52.3328 57.5713C53.9232 58.6866 56.7528 60.1324 57.6822 60.2976C58.3225 60.4009 58.4464 60.2976 59.3965 59.2029C59.9748 58.5213 60.739 57.5919 61.1108 57.0962C61.5445 56.5592 61.9576 56.2288 62.2261 56.2288C62.4739 56.2288 64.2708 57.0136 66.2123 57.9637C68.7321 59.1823 69.8061 59.8226 69.9094 60.1324C70.054 60.6281 69.7441 62.5076 69.3311 63.499C68.6082 65.2339 65.6133 67.0928 63.1555 67.32C61.4412 67.4645 59.7889 67.1547 57.2071 66.2046C54.6047 65.2339 52.3328 64.0979 50.412 62.7761C48.4705 61.4542 43.8646 56.9103 42.2123 54.6797C39.1555 50.5282 38.1022 48.0498 38.1022 44.9723C38.1228 42.8036 38.5566 41.5437 39.9404 39.7262C41.1383 38.1358 41.696 37.8467 43.6168 37.8467C45.0419 37.8467 45.2485 37.888 45.517 38.301Z" fill="#EB0043"/>
</svg>
