<svg width="158" height="159" viewBox="0 0 158 159" fill="none" xmlns="http://www.w3.org/2000/svg">
<path d="M69.0874 0.779266C54.8566 2.62743 41.8271 8.07947 30.4302 16.889C26.8263 19.692 20.6965 25.7293 17.7087 29.4256C9.20719 39.9601 3.57032 52.4044 1.16772 65.9575C0.305248 70.7627 -0.0335798 82.3136 0.520866 87.5809C3.04668 111.176 16.0762 132.399 36.1286 145.49C46.1087 151.989 57.3516 156.086 69.5494 157.595C74.2314 158.18 84.0882 158.15 88.955 157.564C124.686 153.129 153.055 124.76 157.491 89.0286C158.107 84.0386 158.107 74.305 157.491 69.315C154.657 46.3979 141.812 25.8526 122.376 13.0695C112.242 6.41614 100.968 2.28859 88.955 0.779266C84.273 0.224823 73.5229 0.224823 69.0874 0.779266ZM94.099 45.1349C107.406 45.4122 115.476 46.1514 118.957 47.4451C121.082 48.246 123.916 50.7718 125.086 52.928C126.965 56.3471 127.766 62.6308 127.982 75.5987C128.228 90.3839 127.304 100.703 125.333 104.892C123.454 108.927 120.066 111.176 114.675 111.976C101.676 113.886 57.1052 113.917 43.9525 111.976C42.3507 111.73 40.2254 111.237 39.2397 110.898C36.8679 110.005 34.1265 107.418 32.8944 104.954C31.1078 101.257 30.1221 92.2013 30.1221 79.1718C30.1221 66.7891 31.1078 57.2712 32.7403 53.6981C33.7568 51.4187 36.2826 48.8621 38.562 47.7532C40.8106 46.6443 44.2605 46.059 51.3759 45.5662C57.4132 45.1657 75.8947 44.7345 82.0244 44.8885C84.3962 44.9193 89.8175 45.0425 94.099 45.1349Z" fill="#EB0043"/>
<path d="M69.241 79.1717C69.241 87.3036 69.3334 93.957 69.4566 93.957C69.7646 93.957 95.1151 79.3566 95.1151 79.1717C95.1151 78.9869 69.7646 64.3865 69.4566 64.3865C69.3334 64.3865 69.241 71.0399 69.241 79.1717Z" fill="#EB0043"/>
</svg>
